#!OML:ASF I:\Actors\actors\Patient Classification 2\Patient 1\Session 1\actor1.ASF
:FULLY-SPECIFIED
:DEGREES
774
root -0.707465 18.7327 5.10956 4.63568 -1.23454 -1.79281
lowerback 2.43029 1.0253 -0.0512628
upperback -2.42491 1.36989 0.0650741
thorax -3.86027 0.684435 0.0170008
lowerneck -14.6581 -3.65512 -1.88925
upperneck 18.6429 -5.3009 3.27863
head 8.35308 -2.30851 0.798372
rclavicle -1.30049e-014 -3.97569e-015
rhumerus -61.3093 -5.7554 -81.055
rradius 57.3681
rwrist 7.82282
rhand -13.1127 -40.5125
rfingers 7.12502
rthumb 12.9845 -70.0884
lclavicle -1.30049e-014 -3.97569e-015
lhumerus -52.5134 -6.62737 91.7845
lradius 72.6693
lwrist 28.7647
lhand -17.7152 -19.7014
lfingers 7.12502
lthumb 8.54523 10.1057
rfemur 0 0 0
rtibia 0
rfoot 0 0
rtoes 0
lfemur -6.56195 -7.11239 -12.8771
ltibia 21.742
lfoot -22.922 11.7636
ltoes -55.3259
775
root -0.69059 18.7288 5.10544 4.4366 -1.16873 -2.29211
lowerback 2.46995 0.956214 0.826379
upperback -2.36133 1.31841 0.173201
thorax -3.79976 0.636349 -0.36012
lowerneck -14.5464 -3.60494 -1.97369
upperneck 18.6811 -5.20678 3.24223
head 8.34426 -2.27481 0.812868
rclavicle -5.34234e-016 3.57812e-015
rhumerus -60.7 -7.26072 -79.5526
rradius 54.1323
rwrist 9.38465
rhand -14.7254 -39.4178
rfingers 7.12502
rthumb 11.4295 -69.0863
lclavicle -5.34234e-016 3.57812e-015
lhumerus -51.945 -6.23907 91.3808
lradius 69.7199
lwrist 28.1977
lhand -18.1872 -18.2597
lfingers 7.12502
lthumb 8.08968 11.5655
rfemur 0 0 0
rtibia 0
rfoot 0 0
rtoes 0
lfemur -6.28583 -7.08378 -12.3904
ltibia 21.6939
lfoot -22.9217 11.6854
ltoes -55.3027
776
root -0.716179 18.7318 5.11789 4.64749 -1.36761 -1.7219
lowerback 1.79037 0.989662 -0.154837
upperback -2.34359 1.32126 0.155969
thorax -3.41857 0.664679 0.184457
lowerneck -14.4735 -3.55187 -2.00089
upperneck 18.7284 -5.09867 3.09728
head 8.3404 -2.24085 0.782697
rclavicle -4.05334e-015 -1.19271e-015
rhumerus -60.2964 -8.6122 -78.1488
rradius 51.4141
rwrist 10.3218
rhand -15.7809 -39.4607
rfingers 7.12502
rthumb 10.4115 -69.183
lclavicle -4.05334e-015 -1.19271e-015
lhumerus -51.1891 -5.7858 90.9441
lradius 66.2902
lwrist 27.2396
lhand -18.1534 -17.6328
lfingers 7.12502
lthumb 8.12227 12.1911
rfemur 0 0 0
rtibia 0
rfoot 0 0
rtoes 0
lfemur -6.43648 -7.21632 -12.9482
ltibia 21.605
lfoot -23.0265 11.9137
ltoes -55.1256
777
root -0.726367 18.732 5.12493 4.69178 -1.45866 -1.50824
lowerback 1.38447 1.01467 -0.510982
upperback -2.29404 1.3453 0.190659
thorax -3.14754 0.685727 0.426733
lowerneck -14.4695 -3.52717 -1.93286
upperneck 18.8336 -5.02562 2.82379
head 8.36341 -2.22827 0.688446
rclavicle 4.71026e-015 -2.5842e-015
rhumerus -60.1046 -9.82753 -76.8076
rradius 49.1902
rwrist 11.1177
rhand -15.8711 -40.4522
rfingers 7.12502
rthumb 10.3245 -70.1788
lclavicle 4.71026e-015 -2.5842e-015
lhumerus -50.2544 -5.12517 90.4133
lradius 62.5074
lwrist 25.7985
lhand -17.8154 -17.5955
lfingers 7.12502
lthumb 8.44852 12.2155
rfemur 0 0 0
rtibia 0
rfoot 0 0
rtoes 0
lfemur -6.4031 -7.278 -13.1652
ltibia 21.5034
lfoot -23.0444 12.0216
ltoes -55.1096
778
root -0.729406 18.7302 5.12976 4.63807 -1.49987 -1.49176
lowerback 1.13591 1.03298 -0.556504
upperback -2.24958 1.37149 0.260183
thorax -2.96461 0.700317 0.527913
lowerneck -14.4617 -3.50931 -1.85596
upperneck 19.0097 -4.96657 2.55177
head 8.41009 -2.22095 0.591132
rclavicle -1.4064e-014 1.98785e-016
rhumerus -60.1044 -10.9 -75.4933
rradius 47.3126
rwrist 11.7245
rhand -15.7338 -40.9753
rfingers 7.12502
rthumb 10.4569 -70.6953
lclavicle -1.4064e-014 1.98785e-016
lhumerus -49.21 -4.14731 89.714
lradius 58.4235
lwrist 23.9061
lhand -17.3283 -18.2661
lfingers 7.12502
lthumb 8.91851 11.5254
rfemur 0 0 0
rtibia 0
rfoot 0 0
rtoes 0
lfemur -6.21661 -7.25336 -13.1898
ltibia 21.3217
lfoot -22.9727 12.0586
ltoes -55.2135
779
root -0.732874 18.7287 5.1349 4.60355 -1.53513 -1.50319
lowerback 0.882163 1.03477 -0.584533
upperback -2.21584 1.37623 0.335249
thorax -2.78944 0.703761 0.625842
lowerneck -14.4075 -3.4519 -1.88751
upperneck 19.1494 -4.86732 2.46983
head 8.44358 -2.18399 0.580672
rclavicle 9.51992e-015 2.48481e-015
rhumerus -60.2646 -11.7485 -74.3434
rradius 46.0281
rwrist 11.8989
rhand -14.9522 -41.4302
rfingers 7.12502
rthumb 11.2108 -71.1107
lclavicle 9.51992e-015 2.48481e-015
lhumerus -48.0504 -2.63194 88.6788
lradius 53.9368
lwrist 21.4424
lhand -16.533 -20.1849
lfingers 7.12502
lthumb 9.68589 9.57237
rfemur 0 0 0
rtibia 0
rfoot 0 0
rtoes 0
lfemur -6.11106 -7.27065 -13.1793
ltibia 21.2537
lfoot -22.9964 12.0804
ltoes -55.2248
780
root -0.735675 18.7282 5.13937 4.58755 -1.54907 -1.54815
lowerback 0.626527 1.02674 -0.560462
upperback -2.17549 1.36873 0.407112
thorax -2.60498 0.699777 0.691792
lowerneck -14.3337 -3.38713 -1.93656
upperneck 19.187 -4.77009 2.47782
head 8.44202 -2.14126 0.603811
rclavicle -1.42139e-014 7.95139e-016
rhumerus -60.5193 -12.2348 -73.5607
rradius 45.3288
rwrist 11.8954
rhand -13.8258 -42.0903
rfingers 7.12502
rthumb 12.297 -71.7087
lclavicle -1.42139e-014 7.95139e-016
lhumerus -46.9164 -0.726736 87.5041
lradius 50.4132
lwrist 18.7743
lhand -16.1957 -18.6042
lfingers 7.12502
lthumb 10.0114 11.1377
rfemur 0 0 0
rtibia 0
rfoot 0 0
rtoes 0
lfemur -6.05738 -7.37435 -13.133
ltibia 21.2335
lfoot -23.0448 12.1672
ltoes -55.1888
781
root -0.737393 18.7281 5.14292 4.57823 -1.5581 -1.57802
lowerback 0.385879 1.01747 -0.537176
upperback -2.14869 1.35872 0.459485
thorax -2.44251 0.694396 0.737721
lowerneck -14.2534 -3.34302 -1.89429
upperneck 19.1964 -4.7151 2.45317
head 8.42762 -2.11557 0.596322
rclavicle 2.49413e-015 4.47266e-015
rhumerus -60.7688 -12.3441 -73.1542
rradius 44.9392
rwrist 11.9291
rhand -12.7799 -42.6922
rfingers 7.12502
rthumb 13.3054 -72.2475
lclavicle 2.49413e-015 4.47266e-015
lhumerus -45.9652 1.5864 86.0993
lradius 46.9328
lwrist 15.9562
lhand -15.9593 -18.274
lfingers 7.12502
lthumb 10.2394 11.4567
rfemur 0 0 0
rtibia 0
rfoot 0 0
rtoes 0
lfemur -6.01799 -7.50391 -13.111
ltibia 21.2257
lfoot -23.1015 12.3041
ltoes -55.1957
782
root -0.73945 18.7279 5.14581 4.58093 -1.55007 -1.58671
lowerback 0.189305 0.999651 -0.538346
upperback -2.15416 1.3362 0.491568
thorax -2.33796 0.683268 0.775531
lowerneck -14.1466 -3.29941 -1.84697
upperneck 19.2044 -4.67595 2.49138
head 8.40987 -2.09083 0.607551
rclavicle 1.00755e-014 6.75868e-015
rhumerus -60.9748 -12.1811 -73.0251
rradius 44.7412
rwrist 11.9728
rhand -11.821 -43.0816
rfingers 7.12502
rthumb 14.2295 -72.5742
lclavicle 1.00755e-014 6.75868e-015
lhumerus -45.315 4.11942 84.4952
lradius 43.7835
lwrist 13.0805
lhand -15.9344 -18.646
lfingers 7.12502
lthumb 10.2634 11.0836
rfemur 0 0 0
rtibia 0
rfoot 0 0
rtoes 0
lfemur -6.00829 -7.53099 -13.0951
ltibia 21.2211
lfoot -23.122 12.3301
ltoes -55.2238
783
root -0.741662 18.7272 5.14827 4.57322 -1.52591 -1.58827
lowerback 0.0502155 0.954671 -0.529572
upperback -2.17033 1.27695 0.503696
thorax -2.27537 0.653514 0.786773
lowerneck -14.0347 -3.22345 -1.77444
upperneck 19.2245 -4.59899 2.53312
head 8.39391 -2.04602 0.620142
rclavicle -2.14233e-014 4.37326e-015
rhumerus -61.1502 -11.7554 -73.1585
rradius 44.7049
rwrist 12.0368
rhand -11.1083 -42.9804
rfingers 7.12502
rthumb 14.9161 -72.4233
lclavicle -2.14233e-014 4.37326e-015
lhumerus -44.9743 6.65969 82.8547
lradius 41.5862
lwrist 10.5766
lhand -15.8938 -17.2611
lfingers 7.12502
lthumb 10.3026 12.4666
rfemur 0 0 0
rtibia 0
rfoot 0 0
rtoes 0
lfemur -5.99222 -7.55908 -13.0823
ltibia 21.2117
lfoot -23.1241 12.3036
ltoes -55.1881
784
root -0.744275 18.7257 5.15067 4.52249 -1.51369 -1.59268
lowerback -0.061818 0.894641 -0.50342
upperback -2.16064 1.19707 0.485654
thorax -2.19999 0.61266 0.757324
lowerneck -13.9445 -3.12827 -1.58957
upperneck 19.2641 -4.5111 2.52671
head 8.3843 -1.9924 0.598892
rclavicle -4.68134e-015 -2.68359e-015
rhumerus -61.2441 -11.1994 -73.4902
rradius 44.7208
rwrist 12.2095
rhand -10.583 -42.3272
rfingers 7.12502
rthumb 15.4222 -71.7319
lclavicle -4.68134e-015 -2.68359e-015
lhumerus -44.928 9.00026 81.2906
lradius 39.7982
lwrist 8.00881
lhand -16.8311 -16.9065
lfingers 7.12502
lthumb 9.3983 12.864
rfemur 0 0 0
rtibia 0
rfoot 0 0
rtoes 0
lfemur -5.91159 -7.71487 -13.0866
ltibia 21.1956
lfoot -23.197 12.3758
ltoes -55.1354
785
root -0.747615 18.7243 5.15301 4.45666 -1.5192 -1.61223
lowerback -0.183592 0.840839 -0.475342
upperback -2.13032 1.12546 0.467303
thorax -2.09817 0.575779 0.726404
lowerneck -13.8632 -3.04725 -1.40788
upperneck 19.2857 -4.44531 2.53991
head 8.37151 -1.94749 0.582027
rclavicle 5.1618e-016 8.24956e-015
rhumerus -61.1799 -10.6857 -73.8467
rradius 44.6561
rwrist 12.5629
rhand -10.0389 -41.4252
rfingers 7.12502
rthumb 15.9461 -70.7888
lclavicle 5.1618e-016 8.24956e-015
lhumerus -45.1032 10.9906 79.8598
lradius 38.4632
lwrist 6.11236
lhand -17.8508 -17.5735
lfingers 7.12502
lthumb 8.41434 12.2389
rfemur 0 0 0
rtibia 0
rfoot 0 0
rtoes 0
lfemur -5.79877 -7.87461 -13.0762
ltibia 21.1687
lfoot -23.2892 12.4695
ltoes -55.0774
786
root -0.750042 18.7239 5.15426 4.41626 -1.53245 -1.61005
lowerback -0.323284 0.784491 -0.472594
upperback -2.09687 1.05044 0.460982
thorax -1.98388 0.537749 0.722052
lowerneck -13.8135 -2.97451 -1.30892
upperneck 19.3111 -4.38068 2.5948
head 8.36881 -1.90448 0.592021
rclavicle 4.51958e-015 6.85807e-015
rhumerus -60.9863 -10.296 -74.0939
rradius 44.5
rwrist 13.038
rhand -9.46994 -40.5115
rfingers 7.12502
rthumb 16.494 -69.8304
lclavicle 4.51958e-015 6.85807e-015
lhumerus -45.4104 12.7847 78.4546
lradius 37.3337
lwrist 5.08723
lhand -18.1851 -19.8833
lfingers 7.12502
lthumb 8.09166 9.94179
rfemur 0 0 0
rtibia 0
rfoot 0 0
rtoes 0
lfemur -5.71157 -7.97845 -13.085
ltibia 21.1266
lfoot -23.3358 12.5281
ltoes -54.9869
